<?xml version="1.0" encoding="utf-8"?>
<!-- Generator: Adobe Illustrator 27.6.1, SVG Export Plug-In . SVG Version: 6.00 Build 0)  -->
<svg version="1.1" id="Layer_1" xmlns="http://www.w3.org/2000/svg" xmlns:xlink="http://www.w3.org/1999/xlink" x="0px" y="0px"
	 viewBox="0 0 124 47" style="enable-background:new 0 0 124 47;" xml:space="preserve">
<style type="text/css">
	.st0{fill:#FF6633;}
	.st1{clip-path:url(#SVGID_00000173152839127410475380000011070520177614266546_);}
	.st2{fill:url(#Path_332_00000156582743308390570260000010788968249291377323_);}
	.st3{fill:#2D394F;}
</style>
<g>
	<circle id="Ellipse_280" class="st0" cx="3.6" cy="43.4" r="3.6"/>
	<path id="Path_331" class="st0" d="M27.3,40.6c-0.6-4.1-2.5-8-5.4-11c-0.7-0.8-1.5-1.5-2.4-2.1c7-4.3,9.1-13.4,4.9-20.3
		C21.8,2.7,17,0,11.9,0H4.7C2.1,0,0,2.1,0,4.7v19.9c0,2.7,2.2,4.9,4.9,4.9l0,0H6c0.1,0,0.3,0,0.4,0s0.3,0,0.5,0c0.3,0,0.6,0,0.9,0
		c6.3,0.4,11.5,4.9,12.9,11c0.2,1,0.3,2.1,0.3,3.1c0,0.5,0,1-0.1,1.4C21,46,21.7,46.9,22.6,47c0.1,0,0.1,0,0.2,0h3
		c0.9,0,1.6-0.7,1.7-1.6c0-0.6,0.1-1.1,0.1-1.7C27.6,42.6,27.5,41.6,27.3,40.6L27.3,40.6z M6.4,20.5V9c0-1.4,1.2-2.6,2.6-2.6h2.1
		c0.2,0,0.5,0,0.7,0s0.5,0,0.7,0c4.3,0.4,7.6,3.9,7.6,8.2c0,4.7-3.8,8.4-8.4,8.4H9C7.6,23.1,6.4,22,6.4,20.5z"/>
	<g>
		<g>
			<defs>
				<path id="SVGID_1_" d="M27.3,40.6c-0.6-4.1-2.5-8-5.4-11c-0.7-0.8-1.5-1.5-2.4-2.1c7-4.3,9.1-13.4,4.9-20.3
					C21.8,2.7,17,0,11.9,0.1H4.7C2.1,0.1,0,2.1,0,4.7v19.9c0,2.7,2.2,4.9,4.9,4.9l0,0H6c0.1,0,0.3,0,0.4,0s0.3,0,0.5,0
					c0.3,0,0.6,0,0.9,0c6.3,0.4,11.5,4.9,12.9,11c0.2,1,0.3,2.1,0.3,3.1c0,0.5,0,1-0.1,1.4c-0.1,0.9,0.6,1.8,1.5,1.9
					c0.1,0,0.1,0,0.2,0h3c0.9,0,1.6-0.7,1.7-1.6c0-0.6,0.1-1.1,0.1-1.7C27.6,42.6,27.5,41.6,27.3,40.6L27.3,40.6z M6.4,20.5V9
					c0-1.4,1.2-2.6,2.6-2.6h2.1c0.2,0,0.5,0,0.7,0s0.5,0,0.7,0c4.3,0.4,7.6,3.9,7.6,8.2c0,4.7-3.8,8.4-8.4,8.4H9
					C7.6,23.1,6.4,22,6.4,20.5z"/>
			</defs>
			<clipPath id="SVGID_00000099627603540761944120000002330547919404886191_">
				<use xlink:href="#SVGID_1_"  style="overflow:visible;"/>
			</clipPath>
			
				<g id="Group_964" transform="translate(0 0.026)" style="clip-path:url(#SVGID_00000099627603540761944120000002330547919404886191_);">
				
					<linearGradient id="Path_332_00000050624185489587149390000002138555760398548410_" gradientUnits="userSpaceOnUse" x1="-1696.0648" y1="94.0496" x2="-1695.494" y2="92.837" gradientTransform="matrix(18.3325 -0.1413 8.515339e-02 11.0477 31100.873 -1251.1345)">
					<stop  offset="0" style="stop-color:#333333;stop-opacity:0.812"/>
					<stop  offset="0.1747" style="stop-color:#FF6633;stop-opacity:0.3"/>
					<stop  offset="0.57" style="stop-color:#FF6633"/>
				</linearGradient>
				<path id="Path_332" style="fill:url(#Path_332_00000050624185489587149390000002138555760398548410_);" d="M27.7,24
					c0,2.4-2.4,4.5-5.9,5.4c-3.3-3.4-7.7-5.6-12.4-6.2c0.7-2.7,4.5-4.8,9.1-4.9C23.5,18.3,27.7,20.8,27.7,24z"/>
			</g>
		</g>
	</g>
	<path id="Path_334" class="st3" d="M48.7,25.9h4.9v20.5h-4.8l-0.3-3c-1.2,2.4-4.4,3.6-6.6,3.6c-6.1,0-10.6-3.7-10.6-10.9
		C31.3,29,36,25.3,42,25.4c2.6-0.1,5.1,1.2,6.5,3.3L48.7,25.9z M36.4,36.1c-0.2,3.2,2.3,6,5.5,6.2c0.2,0,0.4,0,0.6,0
		c8,0,8-12.4,0-12.4c-3.2-0.1-5.9,2.4-6.1,5.6C36.4,35.7,36.4,35.9,36.4,36.1z"/>
	<path id="Path_335" class="st3" d="M62.5,17.3v11.3c1.2-2.1,4.6-3.3,6.7-3.3c6,0,10.4,3.7,10.4,10.7c0,6.7-4.5,10.7-10.6,10.7
		c-2.6,0.1-5.1-1.1-6.6-3.3l-0.3,2.8h-4.7v-29H62.5z M62.8,36.1c0,3.2,2.6,5.9,5.9,5.9c3.2,0,5.9-2.6,5.9-5.9c0.2-3.1-2.2-5.8-5.3-6
		c-0.2,0-0.3,0-0.5,0c-3.2-0.1-5.9,2.5-5.9,5.7C62.8,35.9,62.8,36,62.8,36.1L62.8,36.1z"/>
	<path id="Path_336" class="st3" d="M88.4,17.3v11.3c1.2-2.1,4.6-3.3,6.7-3.3c6,0,10.4,3.7,10.4,10.7c0,6.7-4.5,10.7-10.6,10.7
		c-2.6,0.1-5.1-1.1-6.6-3.3l-0.3,2.8h-4.7v-29H88.4z M88.8,36.1c0,3.2,2.6,5.9,5.9,5.9s5.9-2.6,5.9-5.9c0.2-3.1-2.2-5.8-5.3-6
		c-0.2,0-0.3,0-0.5,0c-3.2-0.1-5.9,2.5-5.9,5.7C88.8,36,88.8,36,88.8,36.1L88.8,36.1z"/>
	<path id="Path_337" class="st3" d="M114.9,20.1c0,1.7-1.3,3-3,3c-1.7,0-3-1.3-3-3s1.3-3,3-3C113.5,17.1,114.9,18.5,114.9,20.1
		L114.9,20.1z M109.3,25.8v20.6h5.1V25.8H109.3z"/>
	<path id="Path_338" class="st3" d="M124,17.3v29h-5v-29H124z"/>
	<path id="Path_339" class="st0" d="M34.6,0.1v10.5h6.5v2.2h-8.9V0.1H34.6z"/>
	<path id="Path_340" class="st0" d="M44.5,9.1c0.2,1.2,1.4,2.1,2.7,1.9c0.9,0,1.7-0.3,2.4-0.8l1.4,1.4c-1,1-2.4,1.5-3.8,1.4
		c-2.5,0.2-4.7-1.6-4.9-4.1c0-0.2,0-0.5,0-0.7c-0.1-2.5,1.8-4.6,4.2-4.7c0.2,0,0.3,0,0.5,0c3,0,4.8,1.8,4.5,5.5L44.5,9.1z M49.4,7.2
		c-0.2-1.1-1.2-1.9-2.3-1.7c0,0,0,0,0,0c-1.1-0.1-2.2,0.6-2.5,1.7H49.4z"/>
	<path id="Path_341" class="st0" d="M60.3,3.8h2.1v8.9h-2.1l-0.1-1.3c-0.6,1-1.7,1.6-2.9,1.6c-2.4,0.2-4.4-1.6-4.6-4
		c0-0.2,0-0.5,0-0.7c-0.2-2.4,1.6-4.5,4-4.7c0.2,0,0.4,0,0.7,0c1.1,0,2.2,0.5,2.8,1.4L60.3,3.8z M54.9,8.3c-0.1,1.4,1,2.6,2.4,2.7
		c0.1,0,0.2,0,0.3,0c3.5,0,3.5-5.4,0-5.4c-1.4-0.1-2.6,1-2.6,2.4C54.9,8.1,54.9,8.2,54.9,8.3L54.9,8.3z"/>
	<path id="Path_342" class="st0" d="M66.3,3.8l0.2,1C67,4,68,3.5,69,3.6c0.8,0,1.7,0.3,2.3,0.8l-1,1.9c-0.4-0.4-1-0.6-1.6-0.6
		c-1.1-0.1-2.1,0.7-2.2,1.9c0,0.1,0,0.3,0,0.4v4.7h-2.2V3.8L66.3,3.8L66.3,3.8z"/>
	<path id="Path_343" class="st0" d="M78.7,12.7V8.1c0.1-1.2-0.7-2.2-1.8-2.4c-0.1,0-0.2,0-0.3,0c-1.3,0-2.3,1.1-2.3,2.4
		c0,0,0,0.1,0,0.1v4.6H72V3.8h2L74.2,5c0.7-0.8,1.8-1.3,2.9-1.4c2.1,0,3.8,1.6,3.8,4.4v4.7L78.7,12.7z"/>
	<path id="Path_344" class="st0" d="M94.6,3.8l2,6.7l2.1-6.7h2.4l-3.1,9h-2.6l-0.9-2.6l-0.8-3l-0.8,3L92,12.8h-2.6l-3.1-9h2.5
		l2.1,6.7l1.9-6.7H94.6z"/>
	<path id="Path_345" class="st0" d="M105.4,1.3c0,0.7-0.6,1.3-1.3,1.3s-1.3-0.6-1.3-1.3S103.3,0,104,0l0,0
		C104.8,0,105.4,0.6,105.4,1.3z M102.9,3.8v9h2.2v-9L102.9,3.8z"/>
	<path id="Path_346" class="st0" d="M110.3,1.3v2.5h2.5v1.9h-2.5v3.8c-0.1,0.6,0.3,1.2,0.9,1.3c0.1,0,0.1,0,0.2,0
		c0.4,0,0.7-0.1,1.1-0.3l0.6,1.9c-0.6,0.2-1.2,0.4-1.8,0.4c-1.6,0.2-3-0.9-3.2-2.5c0-0.2,0-0.5,0-0.7V5.7h-1.7V3.8h1.7V1.5
		L110.3,1.3z"/>
	<path id="Path_347" class="st0" d="M116.6,0.1v5c0.7-0.9,1.7-1.4,2.8-1.4c2.5,0,3.7,1.7,3.7,4.3v4.7h-2.2V8.1c0-1.6-0.9-2.3-2-2.3
		c-1.3,0-2.3,1.1-2.2,2.4c0,0,0,0.1,0,0.1v4.6h-2.2V0.1L116.6,0.1L116.6,0.1z"/>
</g>
</svg>
